PathFileType	4	(X/Y/Z)	C:\Users\Tech_3\Documents\Nikita\PSYC9080\walk1.trc
DataRate	CameraRate	NumFrames	NumMarkers	Units	OrigDataRate	OrigDataStartFrame	OrigNumFrames
120.00	120.00	      18	16	mm	120.00	946	      2520
Frame#	Time	R_1M			R_5M			R_CALC			R_MAL			R_KNEE			R_GT			R_ASIS			R_PSIS			L_1M			L_5M			L_CALC			L_MAL			L_KNEE			L_GT			L_ASIS			L_PSIS			
		X1	Y1	Z1	X2	Y2	Z2	X3	Y3	Z3	X4	Y4	Z4	X5	Y5	Z5	X6	Y6	Z6	X7	Y7	Z7	X8	Y8	Z8	X9	Y9	Z9	X10	Y10	Z10	X11	Y11	Z11	X12	Y12	Z12	X13	Y13	Z13	X14	Y14	Z14	X15	Y15	Z15	X16	Y16	Z16	

946	7.875	250.25607	53.52650	375.88086	144.54411	48.45745	351.03687	211.57578	47.30539	173.35387	155.15611	122.98595	263.52869	128.76089	484.64691	360.01065	56.42482	864.48267	384.07443	148.86636	917.11975	474.28769	195.74899	992.13739	245.64217	341.26355	77.15669	572.88379	427.08954	84.27453	531.46008	307.65341	73.58707	370.47321	379.72855	146.44443	433.70880	394.72018	540.80701	538.52576	437.06409	841.27063	407.97440	344.15457	929.05231	471.39355	270.28979	982.87646	239.20238	
947	7.883	250.35608	54.70157	368.80185	144.85028	48.34407	342.06635	212.61490	47.72918	164.61740	156.00241	123.15360	255.13959	129.40924	484.05789	354.34641	56.84175	863.64844	382.06564	148.97581	915.92633	473.23181	196.84633	991.62866	244.80600	343.29099	78.92280	593.83728	428.75934	85.55819	552.13031	310.31146	64.93627	391.43137	380.68625	141.83946	451.30328	393.63153	540.03766	538.43213	436.86618	839.18719	412.20731	344.12018	927.95874	471.30713	272.11533	982.68188	238.65617	
948	7.892	250.92830	54.51508	360.42850	145.04936	48.17264	333.06561	212.36288	48.47322	155.51549	156.12282	123.44965	246.48540	129.70306	483.43857	348.62900	57.26081	862.79602	380.23788	148.83307	914.64960	472.04184	198.42412	990.95428	244.16508	343.96655	81.82284	614.44525	430.05109	86.82952	572.46466	310.65927	57.88372	412.61075	381.22150	137.70302	468.82187	392.47559	538.91309	538.10938	436.99396	838.00537	411.92587	344.05292	926.83264	471.38196	273.34982	981.88477	238.19110	
949	7.900	249.96947	53.67418	350.72961	144.85161	48.32954	323.91733	213.61789	48.79925	146.72418	156.57257	123.79142	237.93620	130.15398	482.61182	342.95392	57.87908	861.64008	378.41473	148.68039	913.38953	470.83655	199.50606	989.99432	243.18398	344.86728	85.07454	634.10974	430.64063	88.11759	591.77997	311.72339	51.27732	434.10764	381.62610	134.10924	486.02951	391.75385	537.63641	537.78174	437.17697	836.97443	412.10583	343.80801	925.45068	471.35568	274.38229	980.27826	237.96561	
950	7.908	250.41040	53.69635	342.52353	145.02011	48.25571	314.80762	213.53891	49.53767	137.63710	156.76886	124.25812	229.26683	130.36070	482.22070	337.16089	58.04131	860.69092	376.46121	148.50642	911.95557	469.83627	200.72264	989.10278	242.42166	345.53223	88.84405	653.45856	431.06882	90.28133	611.27106	311.65128	46.10839	454.84952	381.73633	131.18999	502.99496	391.10510	536.20654	537.18256	437.50351	834.96191	411.77960	343.84967	923.94800	471.38754	275.91318	979.12933	237.74582	
951	7.917	250.38184	53.07448	332.98212	145.29698	48.10491	305.67636	214.07932	50.05562	128.94914	156.80531	124.61005	220.33644	130.49458	481.53061	331.43411	58.36108	859.60876	374.95621	148.28433	910.51996	468.79108	202.21834	988.16632	241.77408	344.78354	93.44837	671.58325	430.27390	92.47228	629.60693	311.94559	41.59326	475.26105	382.12344	128.52264	519.59900	390.73404	534.31592	536.43787	437.76431	833.25977	411.61865	343.95157	922.29022	471.66272	277.37201	978.29260	237.81827	
952	7.925	250.10890	53.02092	324.21646	145.38602	48.01263	296.59692	213.93279	50.68223	119.93489	157.14903	124.87897	211.94971	130.93250	480.88995	325.90091	58.87977	858.77545	373.17917	148.16847	908.67407	467.64209	203.59938	987.04169	241.16658	343.60358	98.92228	688.67902	430.19394	95.13541	647.54663	312.55923	37.84829	495.01031	382.22479	126.95396	535.78784	390.93713	532.30786	535.36896	438.23285	831.13971	411.56305	343.54065	920.46149	471.75620	278.42886	976.53217	237.79468	
953	7.933	249.98328	52.91569	315.08609	145.21902	48.04582	287.52167	213.71700	51.52068	110.89856	157.55876	125.25301	203.35939	131.29893	480.32797	320.62985	58.16006	857.71893	371.17886	148.35632	907.16052	467.07077	204.97156	985.86011	240.73106	342.54581	104.48207	704.75818	429.37643	98.23724	664.15601	312.91937	35.05340	513.47089	382.65253	125.98658	550.85571	390.47864	530.12714	534.61938	438.53119	828.93323	411.10480	343.81232	918.73346	471.80475	280.20013	975.32263	237.40549	
954	7.942	250.26060	53.09807	306.64853	145.14906	47.91487	278.43027	213.78503	52.34285	101.99580	157.22595	125.69505	194.73628	131.25862	479.66599	315.49719	59.93090	856.53033	370.22900	148.44992	905.79559	466.41046	206.74501	984.69611	240.33118	341.05643	110.28815	719.55865	428.60541	101.72612	681.06604	313.66922	33.00777	530.96594	383.24179	125.01446	565.50311	390.54813	527.93298	533.72815	439.02066	827.01074	410.43069	343.68124	916.72339	472.15836	281.69699	973.79913	237.37936	
955	7.950	250.51990	52.85778	297.57581	145.25876	47.55741	269.39841	213.15303	52.91953	93.25276	157.28705	126.06789	186.29590	131.47726	478.89941	310.81189	60.40460	855.38965	368.83017	148.57320	904.15759	465.80786	208.29292	983.36755	239.97411	338.90372	116.11870	732.83160	427.18976	105.88349	696.77075	315.44519	31.19383	547.50336	383.95691	124.85673	579.31787	390.06134	525.73248	532.77423	440.09290	824.67761	410.30475	343.78070	915.06732	472.21533	283.21332	972.76068	236.84326	
956	7.958	249.82106	52.57034	288.70306	144.98300	47.43419	260.18686	213.81294	54.15706	83.95612	157.26167	126.54459	178.04410	131.86432	477.81552	306.48352	61.29927	854.12213	367.69464	148.98161	902.65308	465.30899	209.64450	982.14856	239.60225	336.82120	121.32662	744.85321	426.18744	109.94803	711.20483	317.81473	30.34262	561.61554	385.34503	125.41246	591.95276	389.52557	523.47125	532.02710	439.23593	822.32318	412.65576	344.12634	913.15411	472.39755	285.00562	971.19232	236.85234	
957	7.967	249.95749	52.37668	279.37949	144.67459	47.22506	251.08432	213.39931	55.25391	74.73819	157.44977	127.06664	169.73463	131.89949	476.95761	302.42987	61.74396	853.03650	366.44583	149.32422	900.96930	464.57901	211.35861	980.80579	239.34036	334.56931	125.94746	755.38049	424.35211	114.25285	723.91132	320.36237	29.71420	574.64142	386.07111	126.16535	603.27661	388.83228	521.20721	531.43030	440.26868	820.25623	412.51584	344.70023	911.62427	473.00912	286.31467	969.35638	236.89113	
958	7.975	249.30656	51.76016	269.88617	144.61798	46.95767	241.96117	213.11151	56.74090	65.87881	156.60594	127.97911	161.49515	132.26657	476.10449	298.67419	61.29182	852.13910	364.88184	149.60381	899.39435	463.99408	212.84843	979.52234	239.15070	332.09521	130.00417	764.65576	422.80750	118.70062	735.41980	322.94135	29.16768	586.30255	386.86514	126.92355	613.70868	388.16287	519.07074	530.80823	440.74951	818.05035	415.22787	345.07932	909.10492	473.51065	288.00333	967.81384	237.12180	
959	7.983	249.63087	51.79276	261.51434	144.48164	46.74120	232.89522	212.25246	57.91456	57.26653	156.54079	128.66269	153.40981	132.39546	475.17715	295.21915	62.10111	851.02972	363.72864	150.12001	897.64771	463.50616	214.56952	978.28064	238.97523	329.72266	133.38496	772.81738	420.83575	122.39019	745.35181	324.10938	29.01144	596.06055	387.02692	127.72164	622.94537	387.91873	516.90881	530.56549	441.75256	816.15210	415.29617	345.33279	906.89819	474.13071	289.78891	966.20325	237.36403	
960	7.992	249.36632	51.73405	252.14664	144.31087	46.75839	223.79115	213.02225	60.20613	48.08673	156.02771	129.64825	145.44154	132.28033	474.13571	292.09149	63.01451	849.79761	362.95511	150.56688	896.17493	463.20886	216.06813	976.82715	238.99565	327.39819	136.33255	779.33881	419.06500	125.37984	753.25354	325.35947	28.52734	604.52509	387.08255	128.39813	630.63123	387.65256	515.16479	530.52118	442.25992	814.18652	415.20236	345.59756	905.45648	474.56824	291.12622	964.53094	237.49875	
961	8.000	249.28259	51.55783	243.27043	144.32129	46.61306	214.87967	213.22447	62.20347	39.46706	156.45126	130.53529	137.77470	132.53537	473.42798	289.10754	63.98906	848.70490	362.21231	150.95036	894.67242	463.02197	217.43359	975.44659	238.87544	324.91653	138.75026	784.57544	416.85526	127.45536	759.96631	326.01605	28.07512	611.54297	386.81686	128.48262	636.51331	387.61395	513.26495	530.32843	442.16220	812.14160	415.42261	346.26721	903.36285	475.07907	292.65729	962.95978	237.86781	
962	8.008	248.80537	50.91046	234.00874	144.10745	46.66422	205.85333	210.88168	64.49553	30.80185	156.56894	131.63632	130.18280	132.67720	472.52869	286.46536	64.69111	847.61212	361.34283	151.37370	893.20886	462.97232	219.06844	974.10645	239.11372	322.29657	140.08267	788.09137	414.54086	128.71872	764.85956	326.47775	27.18480	616.48016	386.38162	128.28622	641.29962	387.69116	511.56668	530.71771	442.58127	810.65442	416.68033	346.80679	901.99969	476.24866	294.02618	961.19421	238.64934	
963	8.017	249.19333	50.94096	225.22690	144.06898	46.79047	196.80608	211.29704	67.29005	22.04340	156.17470	133.28435	122.51209	132.57471	471.55063	284.03568	65.32404	846.44702	360.74707	151.50009	891.65503	462.87735	220.53087	972.72638	239.70828	319.42352	140.34076	789.80005	412.10638	128.92722	768.44116	326.54218	26.28456	619.38702	386.46057	127.83409	644.50385	387.46329	510.08588	531.17108	443.50955	809.24249	418.04572	347.69824	900.83331	477.04163	294.98962	959.79053	238.85770	
